<?xml version="1.0" encoding="utf-8"?>
<!-- Generator: Adobe Illustrator 16.0.0, SVG Export Plug-In . SVG Version: 6.00 Build 0)  -->
<!DOCTYPE svg PUBLIC "-//W3C//DTD SVG 1.1//EN" "http://www.w3.org/Graphics/SVG/1.1/DTD/svg11.dtd">
<svg version="1.1" id="Layer_1" xmlns="http://www.w3.org/2000/svg" xmlns:xlink="http://www.w3.org/1999/xlink" x="0px" y="0px"
	 width="32px" height="41px" viewBox="0 0 32 41" enable-background="new 0 0 32 41" xml:space="preserve">
<g>
	<path fill-rule="evenodd" clip-rule="evenodd" fill="#F26322" d="M16,0c8.836,0,16,7.231,16,16.151C32,25.072,22.145,37.738,16,41
		C8.625,37.661,0,25.072,0,16.151C0,7.231,7.164,0,16,0z"/>
	<path fill-rule="evenodd" clip-rule="evenodd" fill="#FFFFFF" d="M7,27.301v-2h2V7.3h14v18.001h2v2H7z M13.008,9.291h-1.992v3.015
		h1.992V9.291z M13.008,13.301h-1.992v2.988h1.992V13.301z M13.008,17.312h-1.992V20.3h1.992V17.312z M16.996,9.291h-1.992v3.015
		h1.992V9.291z M16.996,13.301h-1.992v2.988h1.992V13.301z M16.996,17.312h-1.992V20.3h1.992V17.312z M20.984,9.291h-1.992v3.015
		h1.992V9.291z M20.984,13.301h-1.992v2.988h1.992V13.301z M20.984,17.312h-1.992V20.3h1.992V17.312z M18.003,21.299h-1.997h-0.012
		h-1.998v4.001h4.006V21.299z"/>
</g>
</svg>
