<?xml version="1.0" encoding="utf-8"?>
<!-- Generator: Adobe Illustrator 16.0.0, SVG Export Plug-In . SVG Version: 6.00 Build 0)  -->
<!DOCTYPE svg PUBLIC "-//W3C//DTD SVG 1.1//EN" "http://www.w3.org/Graphics/SVG/1.1/DTD/svg11.dtd">
<svg version="1.1" id="Layer_1" xmlns="http://www.w3.org/2000/svg" xmlns:xlink="http://www.w3.org/1999/xlink" x="0px" y="0px"
	 width="458px" height="140px" viewBox="0.019 -109.504 458 140" enable-background="new 0.019 -109.504 458 140"
	 xml:space="preserve">
<path fill="#FFFFFF" d="M389.921,6.524l7.359-65.212L44.865-49.379L40.297,6.524"/>
<path fill="#1D9ED9" d="M40.349,6.39l-1.982,24.233h348.852l2.743-24.233"/>
<path fill="#D45197" d="M401.5-7.981c0-0.286,0.054-0.549,0.161-0.812c0.103-0.268,0.249-0.481,0.437-0.669
	c0.183-0.178,0.401-0.33,0.66-0.446c0.259-0.107,0.535-0.165,0.83-0.165c0.299,0,0.562,0.058,0.825,0.165
	c0.254,0.107,0.477,0.259,0.664,0.446c0.179,0.183,0.335,0.401,0.446,0.66c0.116,0.259,0.169,0.526,0.169,0.812
	c0,0.294-0.053,0.571-0.169,0.821c-0.107,0.259-0.259,0.473-0.446,0.66c-0.188,0.178-0.41,0.33-0.664,0.437
	c-0.264,0.107-0.526,0.161-0.825,0.161c-0.295,0-0.571-0.044-0.83-0.156c-0.259-0.103-0.478-0.254-0.66-0.433
	c-0.183-0.183-0.33-0.402-0.437-0.651c-0.107-0.254-0.161-0.535-0.161-0.825V-7.981z"/>
<g>
	<path fill="#FFFFFF" d="M418.663-16.83c-0.125,0.151-0.249,0.276-0.365,0.356c-0.116,0.085-0.276,0.139-0.491,0.139
		c-0.205,0-0.392-0.054-0.544-0.147c-0.178-0.094-0.356-0.205-0.562-0.321c-0.205-0.116-0.442-0.232-0.714-0.33
		c-0.276-0.098-0.615-0.147-1.025-0.147c-0.509,0-0.946,0.103-1.312,0.29c-0.366,0.188-0.674,0.455-0.919,0.799
		c-0.224,0.343-0.41,0.776-0.522,1.271c-0.111,0.5-0.183,1.066-0.183,1.704c0,1.32,0.268,2.337,0.776,3.042
		c0.509,0.714,1.213,1.071,2.109,1.071c0.478,0,0.87-0.058,1.142-0.183c0.272-0.12,0.518-0.25,0.714-0.397l0.531-0.41
		c0.169-0.116,0.374-0.183,0.629-0.183c0.325,0,0.579,0.121,0.749,0.366l1.2,1.476c-0.429,0.482-0.865,0.883-1.348,1.187
		c-0.473,0.312-0.959,0.544-1.444,0.731c-0.482,0.178-0.99,0.286-1.49,0.348c-0.486,0.076-0.981,0.103-1.449,0.103
		c-0.844,0-1.646-0.161-2.422-0.478c-0.759-0.316-1.437-0.776-2.017-1.392c-0.58-0.615-1.053-1.36-1.392-2.248
		c-0.339-0.883-0.504-1.9-0.504-3.033c0-1.008,0.147-1.927,0.446-2.796c0.29-0.87,0.74-1.619,1.324-2.252
		c0.575-0.642,1.298-1.133,2.159-1.499c0.856-0.366,1.851-0.549,2.975-0.549c1.089,0,2.034,0.174,2.854,0.522
		c0.825,0.348,1.557,0.848,2.208,1.517l-1.093,1.445H418.663z M427.615-20.323c1.039,0,1.994,0.165,2.859,0.495
		s1.605,0.798,2.221,1.414c0.616,0.611,1.098,1.36,1.432,2.239c0.349,0.87,0.518,1.851,0.518,2.948c0,1.093-0.174,2.097-0.521,2.975
		c-0.339,0.879-0.821,1.628-1.437,2.252c-0.606,0.62-1.355,1.097-2.217,1.427c-0.86,0.334-1.815,0.504-2.863,0.504
		c-1.066,0-2.029-0.17-2.895-0.504c-0.87-0.33-1.619-0.807-2.239-1.427c-0.624-0.625-1.115-1.374-1.454-2.252
		c-0.339-0.878-0.518-1.869-0.518-2.975c0-1.097,0.188-2.078,0.518-2.953c0.339-0.874,0.83-1.624,1.454-2.239
		c0.624-0.611,1.369-1.08,2.239-1.418c0.865-0.334,1.824-0.486,2.89-0.486H427.615z M427.615-9.132c0.941,0,1.646-0.339,2.092-1.008
		c0.446-0.674,0.678-1.695,0.678-3.06s-0.231-2.391-0.678-3.06c-0.446-0.665-1.15-1-2.101-1c-0.977,0-1.69,0.335-2.146,1
		c-0.459,0.669-0.678,1.695-0.678,3.06s0.228,2.377,0.678,3.06c0.455,0.669,1.169,1.008,2.146,1.008H427.615z M436.728-6.277
		v-13.836h2.556c0.522,0,0.87,0.223,1.021,0.683l0.224,0.754c0.227-0.241,0.473-0.455,0.723-0.66
		c0.245-0.205,0.513-0.375,0.803-0.518c0.294-0.156,0.593-0.276,0.937-0.357c0.33-0.089,0.695-0.125,1.097-0.125
		c0.839,0,1.525,0.223,2.079,0.651c0.544,0.428,0.954,1,1.23,1.722c0.236-0.419,0.518-0.785,0.856-1.093
		c0.33-0.299,0.683-0.54,1.07-0.731c0.393-0.183,0.794-0.317,1.231-0.41c0.429-0.094,0.86-0.138,1.28-0.138
		c0.798,0,1.494,0.125,2.109,0.356c0.615,0.236,1.133,0.58,1.543,1.035c0.411,0.437,0.723,0.99,0.938,1.641
		c0.214,0.66,0.32,1.401,0.32,2.221v8.787h-4.13v-8.787c0-1.432-0.615-2.15-1.847-2.15c-0.544,0-1.017,0.188-1.392,0.553
		c-0.365,0.361-0.544,0.901-0.544,1.597v8.787h-4.139v-8.787c0-0.794-0.156-1.347-0.465-1.664c-0.312-0.317-0.775-0.477-1.369-0.477
		c-0.379,0-0.731,0.089-1.065,0.25c-0.339,0.169-0.651,0.397-0.946,0.687v9.991h-4.13L436.728-6.277z"/>
</g>
<path fill="#D45197" d="M0.019-84.698l8.129,52.15l101.044-11.831l17.698-14.661l-13.563-50.185"/>
<path fill="#752B52" d="M109.191-44.368l17.698-14.672l-13.577-4.567"/>
<path fill="#A33474" d="M109.191-44.368l17.698-14.672l-9.946-5.771"/>
<g>
	<path fill="#FFFFFF" d="M45.893-51.663L36.31-72.832l-0.191,0.031c0.858,3.718,1.445,6.622,1.755,8.709l1.996,13.327l-7.344,1.098
		l-4.601-30.694l11.04-1.644l9.67,20.828l0.169-0.022l3.014-22.732l11.068-1.659l4.594,30.693l-7.627,1.142l-2.01-13.461
		c-0.104-0.698-0.212-1.474-0.321-2.328c-0.104-0.868-0.318-2.968-0.657-6.325l-0.184,0.031l-2.89,22.993l-7.902,1.187
		L45.893-51.663z M67.173-79.172l8.65-1.294l6.073,13.04c0.304,0.687,0.566,1.525,0.787,2.526l0.163-0.029
		c-0.031-0.986,0.011-1.858,0.125-2.616l2.087-14.309l8.377-1.251L87.817-56.4c-0.718,3.399-1.859,5.892-3.416,7.491
		c-1.555,1.599-3.747,2.603-6.577,3.024c-1.098,0.158-2.23,0.205-3.412,0.136l-0.968-6.44c0.763,0.056,1.626,0.016,2.576-0.127
		c0.729-0.109,1.342-0.341,1.844-0.707s0.924-0.823,1.251-1.398c0.33-0.566,0.641-1.47,0.928-2.694L67.164-79.177L67.173-79.172z"/>
</g>
<g>
	<path fill="#FFFFFF" d="M80.253,23.009h-2.054v-7.431h-2.632v-1.597h7.326v1.597h-2.632v7.431H80.253z M93.776,23.009h-2.054V19.11
		h-3.838v3.898H85.83v-9.027h2.055v3.537h3.838v-3.537h2.054V23.009z M103.259,23.009h-5.591v-9.027h5.591v1.57h-3.525v1.976h3.287
		v1.574h-3.287v2.329h3.525v1.574V23.009z M117.445,20.503c0,0.812-0.319,1.453-0.95,1.927c-0.631,0.473-1.508,0.695-2.632,0.695
		c-1.034,0-1.949-0.179-2.738-0.535v-1.784c0.646,0.276,1.204,0.464,1.657,0.58c0.457,0.103,0.867,0.16,1.232,0.16
		c0.458,0,0.799-0.08,1.042-0.24c0.243-0.161,0.366-0.401,0.366-0.723c0-0.174-0.061-0.33-0.166-0.473
		c-0.104-0.134-0.265-0.272-0.47-0.402c-0.21-0.124-0.629-0.33-1.261-0.615c-0.593-0.259-1.037-0.499-1.333-0.74
		c-0.297-0.245-0.535-0.518-0.714-0.839c-0.172-0.312-0.264-0.687-0.264-1.105c0-0.799,0.288-1.428,0.868-1.883
		c0.584-0.455,1.387-0.687,2.42-0.687c0.501,0,0.981,0.063,1.434,0.169c0.457,0.111,0.937,0.276,1.435,0.473l-0.663,1.49
		c-0.511-0.201-0.94-0.339-1.277-0.41c-0.339-0.08-0.672-0.125-1.006-0.125c-0.384,0-0.685,0.089-0.89,0.259
		c-0.205,0.17-0.311,0.393-0.311,0.664c0,0.17,0.045,0.317,0.127,0.442c0.092,0.124,0.219,0.249,0.401,0.365
		c0.184,0.116,0.618,0.33,1.308,0.643c0.898,0.393,1.521,0.803,1.859,1.209c0.342,0.396,0.511,0.896,0.511,1.485H117.445z
		 M124.388,23.009h-2.057v-7.431h-2.625v-1.597h7.322v1.597h-2.632v7.431H124.388z M137.862,13.99v5.834
		c0,0.669-0.16,1.249-0.479,1.749c-0.321,0.504-0.787,0.892-1.39,1.159c-0.593,0.272-1.324,0.41-2.147,0.41
		c-1.242,0-2.21-0.303-2.899-0.896c-0.688-0.593-1.032-1.404-1.032-2.439V14h2.043v5.522c0,0.687,0.149,1.204,0.455,1.525
		c0.296,0.321,0.796,0.49,1.489,0.49c0.672,0,1.16-0.169,1.461-0.49c0.303-0.33,0.457-0.848,0.457-1.544V13.99H137.862
		L137.862,13.99z M149.735,18.406c0,1.489-0.455,2.622-1.369,3.417c-0.914,0.784-2.215,1.186-3.928,1.186h-2.749v-9.027h3.046
		c1.579,0,2.813,0.393,3.687,1.169c0.877,0.775,1.31,1.873,1.31,3.265L149.735,18.406z M147.599,18.455
		c0-1.94-0.914-2.903-2.758-2.903h-1.098v5.869h0.888c1.978,0,2.968-0.98,2.968-2.971V18.455z M158.778,23.009h-5.584v-9.027h5.584
		v1.57h-3.525v1.976h3.289v1.574h-3.289v2.329h3.525v1.574V23.009z M170.855,23.009h-2.612l-4.219-6.828h-0.061
		c0.083,1.209,0.123,2.064,0.123,2.582v4.246h-1.836v-9.027h2.594l4.211,6.762h0.047c-0.064-1.178-0.092-1.998-0.092-2.488V13.99
		h1.849v9.023L170.855,23.009z M178.493,23.009h-2.056v-7.431h-2.632v-1.597h7.321v1.597h-2.629v7.431H178.493z M196.995,23.009
		h-2.057V19.11h-3.836v3.898h-2.054v-9.027h2.054v3.537h3.836v-3.537h2.057V23.009z M206.827,23.009l-0.697-2.149h-3.53
		l-0.703,2.149h-2.212l3.426-9.063h2.513l3.435,9.063h-2.226H206.827z M205.642,19.254c-0.654-1.945-1.02-3.047-1.098-3.301
		c-0.092-0.259-0.136-0.455-0.181-0.607c-0.139,0.527-0.558,1.825-1.249,3.903h2.522L205.642,19.254z M211.716,23.009v-9.027h2.055
		v7.449h3.938v1.578h-5.983H211.716z M220.851,23.009v-9.027h2.055v7.449h3.929v1.578H220.851z M240.67,20.503
		c0,0.812-0.303,1.453-0.937,1.927c-0.643,0.473-1.508,0.695-2.632,0.695c-1.034,0-1.944-0.179-2.747-0.535v-1.784
		c0.66,0.276,1.213,0.464,1.664,0.58c0.459,0.103,0.869,0.16,1.244,0.16c0.455,0,0.794-0.08,1.035-0.24
		c0.24-0.161,0.365-0.401,0.365-0.723c0-0.174-0.063-0.33-0.165-0.473c-0.103-0.139-0.259-0.272-0.469-0.402
		c-0.205-0.124-0.624-0.33-1.253-0.615c-0.594-0.259-1.039-0.499-1.338-0.74c-0.29-0.241-0.522-0.518-0.7-0.839
		c-0.179-0.321-0.276-0.687-0.276-1.105c0-0.799,0.294-1.428,0.874-1.883c0.579-0.455,1.387-0.687,2.408-0.687
		c0.504,0,0.981,0.063,1.437,0.169c0.459,0.111,0.937,0.276,1.436,0.473l-0.669,1.49c-0.517-0.201-0.945-0.339-1.28-0.41
		c-0.334-0.08-0.673-0.125-0.994-0.125c-0.393,0-0.687,0.089-0.901,0.259c-0.205,0.17-0.312,0.393-0.312,0.664
		c0,0.17,0.044,0.317,0.125,0.442c0.089,0.124,0.231,0.249,0.401,0.365c0.183,0.116,0.624,0.33,1.302,0.643
		c0.915,0.393,1.535,0.803,1.865,1.209C240.501,19.414,240.67,19.914,240.67,20.503L240.67,20.503z M249.475,23.009h-5.584v-9.027
		h5.584v1.57h-3.532v1.976h3.292v1.574h-3.292v2.329h3.532v1.574V23.009z M258.886,23.009l-0.704-2.149h-3.533l-0.704,2.149h-2.213
		l3.417-9.063h2.516l3.438,9.063H258.886z M257.69,19.254c-0.65-1.945-1.017-3.047-1.097-3.301
		c-0.076-0.259-0.134-0.455-0.179-0.607c-0.143,0.527-0.562,1.825-1.249,3.903h2.524V19.254z M265.826,19.539v3.475h-2.056v-9.032
		h2.823c1.32,0,2.292,0.232,2.921,0.669c0.629,0.438,0.959,1.124,0.959,2.034c0,0.526-0.16,1.004-0.473,1.414
		c-0.308,0.41-0.758,0.74-1.338,0.972c1.463,2.03,2.408,3.332,2.854,3.93h-2.283l-2.311-3.461H265.826L265.826,19.539z
		 M265.826,17.987h0.665c0.638,0,1.124-0.09,1.436-0.295c0.309-0.205,0.464-0.521,0.464-0.95c0-0.433-0.165-0.731-0.477-0.914
		c-0.321-0.183-0.812-0.276-1.472-0.276h-0.625v2.444L265.826,17.987z M278.307,15.444c-0.768,0-1.37,0.277-1.793,0.812
		c-0.429,0.554-0.643,1.298-0.643,2.267c0,2.012,0.825,3.015,2.436,3.015c0.683,0,1.503-0.151,2.471-0.473v1.605
		c-0.794,0.304-1.687,0.455-2.667,0.455c-1.414,0-2.489-0.393-3.243-1.187c-0.745-0.798-1.119-1.94-1.119-3.426
		c0-0.945,0.188-1.766,0.549-2.462c0.365-0.705,0.896-1.249,1.583-1.632c0.695-0.375,1.499-0.562,2.427-0.562
		c0.937,0,1.882,0.21,2.837,0.634l-0.67,1.552c-0.352-0.151-0.718-0.294-1.084-0.41c-0.374-0.125-0.73-0.192-1.083-0.192V15.444z
		 M292.24,23.009h-2.043V19.11h-3.845v3.898h-2.047v-9.027h2.056v3.537h3.836v-3.537h2.043V23.009L292.24,23.009z M306.71,23.009
		h-5.589v-9.027h5.589v1.57h-3.52v1.976h3.278v1.574h-3.287v2.329h3.528v1.574V23.009z M318.788,23.009h-2.613l-4.216-6.828h-0.053
		c0.084,1.209,0.12,2.064,0.12,2.582v4.246h-1.833v-9.027h2.582l4.211,6.762h0.058c-0.076-1.178-0.094-2.007-0.094-2.493v-4.269
		h1.843v9.027H318.788z M326.357,17.942h3.849v4.674c-0.624,0.192-1.204,0.321-1.757,0.402c-0.549,0.08-1.115,0.106-1.69,0.106
		c-1.463,0-2.583-0.393-3.35-1.2c-0.776-0.798-1.16-1.948-1.16-3.447c0-1.454,0.455-2.587,1.356-3.403
		c0.888-0.821,2.132-1.227,3.715-1.227c1.004,0,1.954,0.188,2.877,0.553l-0.687,1.534c-0.695-0.32-1.437-0.495-2.19-0.495
		c-0.896,0-1.609,0.281-2.146,0.834c-0.535,0.562-0.803,1.302-0.803,2.238c0,0.981,0.215,1.74,0.651,2.239
		c0.429,0.518,1.053,0.776,1.883,0.776c0.423,0,0.852-0.035,1.293-0.116V19.53h-1.833v-1.588H326.357z M333.971,23.009v-9.027h2.052
		v9.027H333.971z M348.521,23.009h-2.613l-4.22-6.828h-0.058c0.084,1.209,0.12,2.064,0.12,2.582v4.246h-1.824v-9.027h2.582
		l4.224,6.762h0.045c-0.075-1.178-0.094-2.007-0.094-2.493v-4.269h1.847v9.027H348.521z M358.008,23.009h-5.589v-9.027h5.584v1.57
		h-3.532v1.976h3.287v1.574h-3.287v2.329h3.528v1.574L358.008,23.009z"/>
</g>
<g>
	<path fill="#B1B1B3" d="M92.864-25.278c-0.183,0.286-0.375,0.482-0.566,0.607c-0.191,0.129-0.457,0.196-0.785,0.196
		c-0.334,0-0.678-0.093-1.028-0.258c-0.352-0.169-0.744-0.348-1.18-0.54c-0.433-0.192-0.935-0.361-1.491-0.54
		c-0.558-0.161-1.207-0.25-1.943-0.25c-1.112,0-1.986,0.228-2.602,0.687c-0.618,0.455-0.924,1.057-0.924,1.807
		c0,0.517,0.183,0.959,0.526,1.302c0.341,0.344,0.82,0.665,1.392,0.915c0.575,0.263,1.233,0.5,1.965,0.731
		c0.74,0.223,1.494,0.468,2.271,0.731c0.775,0.272,1.529,0.58,2.266,0.928c0.729,0.348,1.387,0.794,1.962,1.312
		c0.576,0.531,1.042,1.168,1.39,1.909c0.353,0.741,0.524,1.637,0.524,2.694c0,1.249-0.228,2.399-0.685,3.461
		c-0.457,1.066-1.133,1.976-2.01,2.743c-0.876,0.767-1.991,1.369-3.308,1.807c-1.324,0.441-2.83,0.655-4.558,0.655
		c-0.881,0-1.758-0.084-2.625-0.236c-0.868-0.156-1.69-0.383-2.476-0.673s-1.521-0.638-2.201-1.017
		c-0.688-0.388-1.28-0.807-1.782-1.244l1.608-2.587c0.183-0.299,0.41-0.531,0.685-0.696s0.64-0.258,1.068-0.258
		c0.412,0,0.801,0.107,1.15,0.321c0.353,0.214,0.745,0.428,1.176,0.669c0.437,0.241,0.959,0.473,1.543,0.678
		c0.593,0.205,1.334,0.308,2.215,0.308c0.667,0,1.233-0.076,1.726-0.228c0.491-0.147,0.879-0.353,1.188-0.616
		c0.293-0.259,0.516-0.544,0.658-0.865c0.136-0.33,0.21-0.669,0.21-1.026c0-0.562-0.184-1.026-0.54-1.383
		c-0.365-0.366-0.82-0.673-1.4-0.945c-0.575-0.264-1.233-0.5-1.991-0.723c-0.754-0.214-1.517-0.455-2.293-0.727
		c-0.778-0.272-1.536-0.584-2.283-0.946c-0.732-0.366-1.398-0.834-1.975-1.396c-0.575-0.553-1.05-1.24-1.402-2.052
		c-0.365-0.821-0.549-1.815-0.549-2.984c0-1.066,0.217-2.083,0.631-3.042c0.42-0.959,1.051-1.807,1.874-2.538
		c0.839-0.731,1.871-1.315,3.122-1.748c1.233-0.438,2.683-0.651,4.317-0.651c1.836,0,3.504,0.294,5.005,0.901
		c1.508,0.593,2.74,1.383,3.699,2.351l-1.574,2.466V-25.278z M107.878-4.386c-1.166,0-2.203-0.169-3.106-0.513
		c-0.896-0.334-1.659-0.83-2.275-1.458c-0.617-0.643-1.081-1.405-1.402-2.302c-0.319-0.901-0.476-1.918-0.476-3.06v-13.916h-2.419
		c-0.375,0-0.685-0.116-0.946-0.348c-0.261-0.232-0.388-0.58-0.388-1.048v-2.707l4.128-0.75l1.398-6.679
		c0.183-0.754,0.685-1.128,1.525-1.128h3.608v7.857h6.655v4.804h-6.646v13.465c0,0.718,0.17,1.289,0.511,1.704
		c0.339,0.41,0.832,0.629,1.463,0.629c0.333,0,0.616-0.041,0.854-0.116c0.228-0.071,0.428-0.156,0.593-0.25l0.458-0.246
		c0.145-0.076,0.292-0.111,0.441-0.111c0.2,0,0.365,0.053,0.504,0.134c0.136,0.098,0.263,0.25,0.396,0.473l2.079,3.305
		c-0.959,0.75-2.034,1.316-3.234,1.699c-1.206,0.379-2.448,0.566-3.733,0.566L107.878-4.386z M140.51-30.586v25.798h-4.256
		c-0.883,0-1.454-0.401-1.703-1.204l-0.458-1.802c-0.51,0.5-1.05,0.959-1.599,1.383c-0.549,0.419-1.142,0.776-1.762,1.07
		c-0.631,0.295-1.307,0.536-2.034,0.696c-0.729,0.169-1.505,0.254-2.366,0.254c-1.4,0-2.646-0.245-3.744-0.723
		c-1.086-0.486-2.001-1.16-2.741-2.029c-0.729-0.856-1.286-1.9-1.67-3.104c-0.384-1.204-0.571-2.511-0.571-3.943v-16.4h6.905v16.4
		c0,1.427,0.33,2.542,0.987,3.332c0.663,0.798,1.644,1.187,2.941,1.187c0.959,0,1.871-0.206,2.726-0.638
		c0.854-0.419,1.659-1.008,2.422-1.739V-30.59h6.923V-30.586z M169.066-38.249v33.461h-4.257c-0.881,0-1.447-0.401-1.699-1.204
		l-0.576-2.248c-0.515,0.571-1.063,1.088-1.644,1.552c-0.57,0.473-1.188,0.865-1.859,1.213c-0.667,0.344-1.383,0.607-2.146,0.794
		c-0.763,0.179-1.608,0.268-2.514,0.268c-1.378,0-2.649-0.285-3.8-0.874c-1.151-0.58-2.146-1.436-2.991-2.569
		c-0.845-1.124-1.498-2.506-1.965-4.134c-0.471-1.637-0.702-3.51-0.702-5.607c0-1.918,0.266-3.711,0.785-5.361
		c0.526-1.65,1.269-3.082,2.239-4.291c0.968-1.195,2.136-2.141,3.506-2.824c1.371-0.682,2.888-1.03,4.554-1.03
		c1.407,0,2.585,0.214,3.546,0.634c0.959,0.41,1.826,0.981,2.616,1.695v-9.474H169.066z M162.16-23.878
		c-0.649-0.749-1.356-1.275-2.114-1.574c-0.763-0.299-1.563-0.446-2.422-0.446c-0.83,0-1.588,0.156-2.275,0.478
		c-0.685,0.308-1.277,0.812-1.766,1.481c-0.493,0.687-0.868,1.543-1.143,2.596c-0.273,1.053-0.396,2.302-0.396,3.755
		c0,1.432,0.104,2.649,0.318,3.649c0.219,1.008,0.535,1.811,0.946,2.426c0.41,0.625,0.903,1.066,1.489,1.347
		c0.58,0.272,1.233,0.41,1.945,0.41c1.22,0,2.238-0.241,3.06-0.731c0.832-0.473,1.612-1.16,2.344-2.047V-23.86L162.16-23.878z
		 M180.307-16.625c0.214,2.417,0.903,4.192,2.063,5.308c1.162,1.115,2.672,1.677,4.546,1.677c0.949,0,1.772-0.116,2.466-0.339
		c0.694-0.231,1.303-0.481,1.827-0.758l1.429-0.75c0.427-0.223,0.851-0.33,1.267-0.33c0.533,0,0.95,0.201,1.252,0.593l2,2.511
		c-0.731,0.847-1.543,1.552-2.422,2.114c-0.89,0.558-1.809,1.008-2.763,1.33c-0.95,0.316-1.909,0.544-2.877,0.673
		s-1.9,0.183-2.799,0.183c-1.805,0-3.486-0.294-5.043-0.883c-1.563-0.593-2.924-1.472-4.079-2.632
		c-1.159-1.164-2.074-2.604-2.74-4.317c-0.667-1.722-1.006-3.715-1.006-5.986c0-1.749,0.292-3.399,0.869-4.956
		c0.576-1.552,1.405-2.903,2.489-4.063c1.082-1.142,2.401-2.056,3.954-2.739c1.555-0.687,3.308-1.008,5.252-1.008
		c1.654,0,3.176,0.259,4.567,0.776c1.394,0.531,2.596,1.298,3.608,2.301c1.006,1,1.791,2.226,2.353,3.693
		c0.558,1.454,0.841,3.122,0.841,4.991c0,0.513-0.026,0.941-0.078,1.28c-0.049,0.339-0.136,0.588-0.252,0.798
		c-0.113,0.205-0.271,0.334-0.475,0.41c-0.201,0.076-0.455,0.112-0.776,0.112h-15.468L180.307-16.625z M191.167-20.729
		c0-0.714-0.091-1.4-0.283-2.052c-0.191-0.656-0.492-1.227-0.914-1.727c-0.41-0.504-0.941-0.896-1.574-1.195
		c-0.641-0.29-1.395-0.441-2.284-0.441c-1.646,0-2.941,0.473-3.873,1.405c-0.937,0.932-1.544,2.27-1.827,4.001h10.761
		L191.167-20.729z M208.034-27.584c0.518-0.504,1.051-0.959,1.617-1.378c0.557-0.41,1.15-0.776,1.781-1.075
		c0.629-0.299,1.296-0.531,2.019-0.7c0.731-0.17,1.517-0.25,2.375-0.25c1.398,0,2.641,0.241,3.722,0.723
		c1.082,0.481,2.001,1.16,2.741,2.025c0.745,0.87,1.303,1.909,1.677,3.109c0.373,1.2,0.561,2.52,0.561,3.947v16.4h-6.883v-16.4
		c0-1.427-0.332-2.542-1.003-3.332c-0.663-0.794-1.646-1.187-2.946-1.187c-0.971,0-1.873,0.201-2.732,0.62
		c-0.858,0.419-1.659,1.008-2.422,1.757v18.542h-6.918v-25.794h4.262c0.868,0,1.443,0.401,1.727,1.195l0.428,1.798H208.034z
		 M238.574-4.386c-1.178,0-2.208-0.169-3.109-0.513c-0.905-0.334-1.663-0.83-2.283-1.458C232.57-7,232.106-7.763,231.79-8.659
		c-0.321-0.901-0.478-1.918-0.478-3.06v-13.916h-2.42c-0.365,0-0.685-0.116-0.94-0.348c-0.255-0.232-0.389-0.58-0.389-1.048v-2.707
		l4.124-0.75l1.4-6.679c0.188-0.754,0.695-1.128,1.525-1.128h3.612v7.857h6.646v4.804h-6.655v13.465c0,0.718,0.17,1.289,0.518,1.704
		c0.339,0.41,0.834,0.629,1.463,0.629c0.33,0,0.616-0.041,0.848-0.116c0.236-0.071,0.441-0.156,0.598-0.25
		c0.169-0.089,0.321-0.17,0.468-0.246c0.139-0.076,0.29-0.111,0.442-0.111c0.205,0,0.374,0.053,0.508,0.134
		c0.125,0.098,0.259,0.25,0.393,0.473l2.079,3.305c-0.946,0.75-2.025,1.316-3.229,1.699c-1.2,0.379-2.444,0.566-3.729,0.566V-4.386z
		 M267.343-28.062c0.49-0.428,0.99-0.825,1.508-1.187c0.526-0.366,1.097-0.669,1.686-0.928s1.231-0.455,1.9-0.589
		c0.674-0.151,1.414-0.223,2.19-0.223c1.404,0,2.64,0.241,3.724,0.723c1.089,0.481,2.003,1.16,2.743,2.025
		c0.741,0.87,1.303,1.909,1.678,3.109c0.37,1.2,0.558,2.52,0.558,3.947v16.4h-6.878v-16.4c0-1.427-0.335-2.542-0.999-3.332
		c-0.665-0.794-1.66-1.187-2.958-1.187c-0.959,0-1.873,0.201-2.725,0.62c-0.853,0.419-1.65,1.008-2.418,1.757v18.542h-6.913v-33.512
		h6.913v10.234H267.343z M288.244-27.013c1.517-1.37,3.193-2.386,5.031-3.06c1.837-0.673,3.817-1.021,5.959-1.021
		c1.534,0,2.908,0.258,4.112,0.758c1.213,0.5,2.239,1.195,3.077,2.087c0.848,0.883,1.49,1.954,1.945,3.185
		c0.445,1.231,0.669,2.587,0.669,4.05v16.218h-3.153c-0.647,0-1.143-0.089-1.485-0.277c-0.339-0.178-0.625-0.562-0.839-1.15
		l-0.558-1.642c-0.655,0.562-1.28,1.062-1.882,1.499c-0.616,0.437-1.235,0.803-1.887,1.097c-0.656,0.285-1.352,0.5-2.105,0.66
		c-0.731,0.152-1.565,0.228-2.484,0.228c-1.133,0-2.168-0.151-3.104-0.459c-0.928-0.294-1.735-0.741-2.408-1.338
		c-0.674-0.588-1.2-1.32-1.566-2.208c-0.365-0.888-0.548-1.905-0.548-3.06c0-0.946,0.245-1.896,0.731-2.85
		c0.477-0.95,1.307-1.811,2.484-2.587c1.178-0.776,2.756-1.414,4.715-1.927c1.953-0.5,4.415-0.799,7.363-0.865v-1.33
		c0-1.615-0.348-2.801-1.025-3.559c-0.688-0.758-1.668-1.142-2.953-1.142c-0.954,0-1.748,0.116-2.373,0.339
		c-0.642,0.231-1.187,0.473-1.659,0.731c-0.481,0.259-0.928,0.495-1.338,0.723c-0.424,0.231-0.901,0.339-1.454,0.339
		c-0.495,0-0.896-0.116-1.222-0.366c-0.33-0.241-0.594-0.526-0.813-0.856l-1.23-2.208V-27.013z M302.312-15.572
		c-1.686,0.089-3.086,0.231-4.201,0.437c-1.124,0.214-2.012,0.486-2.668,0.821c-0.66,0.339-1.133,0.713-1.4,1.142
		c-0.276,0.424-0.419,0.883-0.419,1.392c0,1.008,0.285,1.708,0.839,2.123c0.562,0.41,1.338,0.625,2.346,0.625
		c1.16,0,2.15-0.205,2.997-0.616c0.839-0.41,1.673-1.053,2.507-1.918V-15.572L302.312-15.572z M321.401-38.249v33.461h-6.904
		v-33.461H321.401z M334.123-38.249v33.461h-6.914v-33.461H334.123z M355.916-25.278c-0.183,0.286-0.366,0.482-0.563,0.607
		c-0.191,0.125-0.455,0.196-0.789,0.196c-0.339,0-0.674-0.093-1.03-0.258c-0.353-0.169-0.74-0.348-1.178-0.54
		c-0.438-0.192-0.928-0.361-1.49-0.54c-0.562-0.161-1.204-0.25-1.936-0.25c-1.124,0-1.989,0.228-2.6,0.687
		c-0.62,0.455-0.928,1.057-0.928,1.807c0,0.517,0.183,0.959,0.53,1.302c0.348,0.344,0.812,0.665,1.392,0.915
		c0.575,0.263,1.231,0.5,1.963,0.731c0.731,0.223,1.494,0.468,2.27,0.731c0.781,0.259,1.525,0.58,2.267,0.928
		c0.731,0.348,1.387,0.794,1.967,1.312c0.571,0.531,1.034,1.168,1.383,1.909c0.356,0.741,0.526,1.637,0.526,2.694
		c0,1.249-0.224,2.399-0.688,3.461c-0.455,1.062-1.119,1.976-2.007,2.743c-0.883,0.767-1.985,1.369-3.305,1.807
		c-1.325,0.441-2.833,0.655-4.55,0.655c-0.888,0-1.762-0.084-2.627-0.236c-0.865-0.156-1.687-0.383-2.48-0.673
		c-0.785-0.29-1.517-0.638-2.203-1.017c-0.674-0.388-1.275-0.807-1.775-1.244l1.61-2.587c0.183-0.299,0.41-0.531,0.683-0.696
		c0.276-0.165,0.624-0.258,1.062-0.258c0.419,0,0.803,0.107,1.15,0.321c0.349,0.214,0.74,0.428,1.178,0.669
		c0.438,0.236,0.945,0.473,1.543,0.678s1.329,0.308,2.213,0.308c0.669,0,1.23-0.076,1.722-0.228c0.49-0.147,0.883-0.353,1.178-0.616
		c0.303-0.259,0.525-0.544,0.669-0.865c0.134-0.33,0.205-0.669,0.205-1.026c0-0.562-0.184-1.026-0.535-1.383
		c-0.357-0.366-0.821-0.673-1.401-0.945c-0.588-0.264-1.244-0.5-1.998-0.723c-0.749-0.214-1.517-0.455-2.292-0.727
		c-0.776-0.272-1.53-0.584-2.271-0.946c-0.74-0.366-1.405-0.834-1.985-1.396c-0.57-0.553-1.048-1.24-1.4-2.052
		c-0.356-0.821-0.535-1.815-0.535-2.984c0-1.066,0.205-2.083,0.625-3.042c0.419-0.959,1.052-1.807,1.873-2.538
		c0.839-0.731,1.873-1.315,3.122-1.748c1.231-0.438,2.676-0.651,4.317-0.651c1.829,0,3.502,0.294,5.009,0.901
		c1.499,0.593,2.743,1.383,3.698,2.351l-1.575,2.466L355.916-25.278z"/>
</g>
</svg>
