<?xml version="1.0" encoding="utf-8"?>
<!-- Generator: Adobe Illustrator 16.0.0, SVG Export Plug-In . SVG Version: 6.00 Build 0)  -->
<!DOCTYPE svg PUBLIC "-//W3C//DTD SVG 1.1//EN" "http://www.w3.org/Graphics/SVG/1.1/DTD/svg11.dtd">
<svg version="1.1" id="Icons" xmlns="http://www.w3.org/2000/svg" xmlns:xlink="http://www.w3.org/1999/xlink" x="0px" y="0px"
	 width="28.5px" height="26px" viewBox="28 28 28.5 26" enable-background="new 28 28 28.5 26" xml:space="preserve">
<g>
	<g>
		<path fill="#A9A9A9" d="M52.564,50.5l-5.688-5.688C48.204,43.055,49,40.872,49,38.5C49,32.701,44.299,28,38.5,28
			S28,32.701,28,38.5S32.701,49,38.5,49c2.381,0,4.57-0.802,6.332-2.139l5.686,5.687c0.564,0.565,1.482,0.565,2.049,0
			C53.132,51.982,53.131,51.064,52.564,50.5z M38.5,46c-4.142,0-7.5-3.357-7.5-7.5c0-4.142,3.358-7.5,7.5-7.5
			c4.143,0,7.5,3.358,7.5,7.5C46,42.643,42.643,46,38.5,46z"/>
	</g>
</g>
</svg>
